<svg width="27" height="25" viewBox="0 0 27 25" fill="none" xmlns="http://www.w3.org/2000/svg">
<path d="M8.77497 17.1875C13.6223 17.1875 17.55 13.3398 17.55 8.59375C17.55 3.84766 13.6223 0 8.77497 0C3.92763 0 -2.65625e-05 3.84766 -2.65625e-05 8.59375C-2.65625e-05 10.4785 0.62013 12.2217 1.6706 13.6426C1.52294 14.1016 1.30357 14.5068 1.07154 14.8486C0.869036 15.1514 0.662317 15.3857 0.510442 15.5469C0.434505 15.625 0.371223 15.6885 0.329036 15.7275C0.307942 15.7471 0.291067 15.7617 0.28263 15.7666L0.274192 15.7764C0.0421609 15.9766 -0.0590891 16.3281 0.0337234 16.6455C0.126536 16.9629 0.38388 17.1875 0.674973 17.1875C1.59466 17.1875 2.52279 16.9141 3.29482 16.5771C3.68294 16.4062 4.04576 16.2158 4.35794 16.0205C5.65732 16.7627 7.16341 17.1875 8.77497 17.1875ZM18.9 8.59375C18.9 14.0771 14.7192 18.208 9.76638 18.7012C10.7915 22.334 14.1918 25 18.225 25C19.8365 25 21.3426 24.5752 22.642 23.833C22.9584 24.0283 23.317 24.2188 23.7051 24.3896C24.4772 24.7266 25.4053 25 26.325 25C26.6161 25 26.8776 24.7803 26.9662 24.458C27.0548 24.1357 26.9578 23.7842 26.7215 23.584L26.7131 23.5742C26.7047 23.5645 26.6878 23.5547 26.6667 23.5352C26.6245 23.4961 26.5612 23.4375 26.4853 23.3545C26.3334 23.1934 26.1267 22.959 25.9242 22.6562C25.6922 22.3145 25.4728 21.9043 25.3251 21.4502C26.3756 20.0342 26.9958 18.291 26.9958 16.4014C26.9958 11.8701 23.414 8.1543 18.8704 7.83203C18.8873 8.08105 18.8958 8.33496 18.8958 8.58887L18.9 8.59375Z" fill="#5B5B5E"/>
</svg>
