<svg width="26" height="22" viewBox="0 0 26 22" fill="none" xmlns="http://www.w3.org/2000/svg">
<path d="M1.24842 7.89216C1.68052 7.35292 1.93971 7.14846 2.49324 6.95855C3.0151 6.86641 3.28289 6.8727 3.73805 6.95855L4.36046 7.26976L5.29407 7.89216L5.91647 8.51457C6.22546 8.95127 6.53902 9.44812 6.53902 9.44812C6.69827 9.81493 6.78267 10.3317 6.85023 10.6929C6.88873 11.1701 6.90799 11.1127 6.85023 11.6265C6.7623 11.9229 6.542 12.4758 6.22782 12.8714C5.91365 13.2669 5.93715 13.2729 5.60527 13.4938C5.2229 13.6849 4.95775 13.758 4.36046 13.805C3.73765 13.7376 3.40478 13.594 2.80444 13.1826C2.41501 12.8756 2.21624 12.6668 1.87083 12.249C1.52688 11.7636 1.41377 11.4908 1.24842 11.0042C1.0991 10.5519 1.00558 10.2761 0.937221 9.75938C0.885102 8.94431 0.935724 8.52684 1.24842 7.89216Z" stroke="white"/>
<path d="M6.56744 1.19214C7.11155 0.766199 7.41069 0.626543 7.99299 0.568462C8.52209 0.598297 8.78132 0.665749 9.20472 0.853572L9.7393 1.29906L10.5055 2.11875L10.9688 2.86717C11.1696 3.36303 11.361 3.91849 11.361 3.91849C11.432 4.31202 11.3958 4.83435 11.3788 5.20149C11.307 5.67483 11.3389 5.62328 11.165 6.11028C11.0116 6.37859 10.6705 6.86636 10.274 7.17945C9.87762 7.49254 9.89914 7.50371 9.52547 7.64278C9.10951 7.74119 8.83466 7.75162 8.24247 7.6606C7.65165 7.45236 7.36053 7.23633 6.87037 6.69835C6.5616 6.31034 6.41595 6.06156 6.17541 5.57573C5.95177 5.02449 5.90416 4.73301 5.85466 4.22145C5.8129 3.74695 5.78504 3.45708 5.83684 2.93845C5.97279 2.1331 6.11769 1.73833 6.56744 1.19214Z" stroke="white"/>
<path d="M15.377 1.0787C16.058 0.962018 16.3876 0.981061 16.9277 1.2063C17.3793 1.48367 17.5754 1.66608 17.859 2.03234L18.1181 2.67817L18.4035 3.76332L18.4561 4.64197C18.3975 5.1737 18.3024 5.75347 18.3024 5.75347C18.1781 6.13356 17.8983 6.57613 17.7091 6.89123C17.4213 7.27378 17.4738 7.24355 17.0896 7.58966C16.8272 7.75299 16.2955 8.02045 15.7979 8.10789C15.3004 8.19533 15.3141 8.21537 14.9191 8.16044C14.5063 8.04964 14.2594 7.92838 13.7814 7.56721C13.3602 7.10352 13.2065 6.7752 13.0304 6.06904C12.9427 5.58097 12.9326 5.29287 12.9514 4.75108C13.0162 4.15974 13.1126 3.88058 13.3119 3.40681C13.5003 2.96934 13.6134 2.70097 13.9051 2.26906C14.407 1.62471 14.7219 1.34599 15.377 1.0787Z" stroke="white"/>
<path d="M21.4781 6.49705C22.1609 6.60332 22.4672 6.72632 22.9075 7.11182C23.2472 7.51854 23.3751 7.75391 23.5272 8.1914L23.5672 8.88612L23.4922 10.0057L23.2623 10.8553C23.0374 11.3407 22.7626 11.86 22.7626 11.86C22.5238 12.1807 22.1177 12.5112 21.838 12.7496C21.4433 13.0206 21.5027 13.0087 21.0283 13.2145C20.7275 13.2857 20.1383 13.3699 19.6389 13.2944C19.1394 13.2189 19.146 13.2422 18.7891 13.0644C18.433 12.8279 18.2376 12.6343 17.8995 12.1398C17.6478 11.5661 17.6067 11.2059 17.6646 10.4804C17.7369 9.98985 17.819 9.71351 18.0094 9.20593C18.2591 8.66599 18.4394 8.43207 18.7791 8.0464C19.0971 7.6917 19.2897 7.4733 19.7038 7.15677C20.3847 6.70577 20.772 6.54184 21.4781 6.49705Z" stroke="white"/>
<path d="M15.5638 12.249C14.6768 11.4545 14.0386 11.1391 12.4518 11.0042C10.8476 10.9755 9.96322 11.2779 8.40615 12.249C7.46613 12.9924 6.9741 13.5466 6.22772 15.0498C5.57853 16.2787 5.10462 16.9668 4.98291 18.1618C5.36266 20.146 5.91652 20.3403 8.09494 20.6514C10.2734 20.9626 10.9711 19.6869 12.4518 19.0954C14.0028 19.939 15.2526 20.6514 17.431 20.3403C19.1162 19.7706 19.5875 19.1538 19.6095 17.5394C19.6066 16.4576 19.2606 15.9295 18.3647 15.0498C17.3 13.8081 16.6938 13.1828 15.5638 12.249Z" stroke="white"/>
</svg>
