<svg width="26" height="23" viewBox="0 0 26 23" fill="none" xmlns="http://www.w3.org/2000/svg">
<path d="M1.32895 8.77911C1.76098 8.23994 2.02014 8.03551 2.57359 7.84563C3.09539 7.7535 3.36314 7.75979 3.81824 7.84563L4.44056 8.15679L5.37404 8.77911L5.99637 9.40144C6.30531 9.83808 6.61883 10.3349 6.61883 10.3349C6.77806 10.7016 6.86245 11.2183 6.93 11.5795C6.9685 12.0567 6.98775 11.9992 6.93 12.513C6.84208 12.8093 6.6218 13.3621 6.30767 13.7576C5.99354 14.1531 6.01705 14.1591 5.68521 14.38C5.30289 14.5711 5.03777 14.6441 4.44056 14.6912C3.81784 14.6238 3.48501 14.4802 2.88475 14.0689C2.49537 13.7619 2.29664 13.5531 1.95127 13.1354C1.60737 12.6501 1.49427 12.3773 1.32895 11.8907C1.17964 11.4385 1.08614 11.1627 1.01778 10.6461C0.965673 9.83111 1.01629 9.4137 1.32895 8.77911Z" stroke="white"/>
<path d="M6.64702 2.08006C7.19106 1.65418 7.49015 1.51454 8.07238 1.45647C8.6014 1.4863 8.8606 1.55374 9.28394 1.74154L9.81845 2.18696L10.5846 3.00655L11.0478 3.75486C11.2486 4.25066 11.44 4.80604 11.44 4.80604C11.5109 5.19952 11.4748 5.72178 11.4578 6.08887C11.386 6.56215 11.4179 6.5106 11.244 6.99754C11.0905 7.26581 10.7495 7.75352 10.3531 8.06656C9.95675 8.37961 9.97827 8.39078 9.60465 8.52983C9.18874 8.62823 8.91393 8.63865 8.32182 8.54765C7.73109 8.33944 7.44 8.12343 6.94991 7.58553C6.64118 7.19757 6.49554 6.94883 6.25504 6.46306C6.03143 5.91189 5.98383 5.62045 5.93434 5.10896C5.89258 4.63453 5.86473 4.3447 5.91652 3.82614C6.05245 3.0209 6.19732 2.62617 6.64702 2.08006Z" stroke="white"/>
<path d="M15.4551 1.96657C16.1361 1.8499 16.4657 1.86894 17.0057 2.09416C17.4572 2.37149 17.6533 2.55387 17.9368 2.92008L18.1959 3.56583L18.4813 4.65083L18.5339 5.52936C18.4753 6.06102 18.3801 6.64071 18.3801 6.64071C18.2559 7.02075 17.9762 7.46326 17.787 7.77831C17.4992 8.16082 17.5517 8.13059 17.1675 8.47666C16.9052 8.63997 16.3735 8.90738 15.8761 8.99481C15.3786 9.08224 15.3922 9.10228 14.9974 9.04736C14.5846 8.93657 14.3378 8.81533 13.8598 8.45421C13.4386 7.99058 13.2849 7.6623 13.1088 6.95624C13.0212 6.46824 13.0111 6.18017 13.03 5.63845C13.0947 5.04719 13.1911 4.76807 13.3903 4.29437C13.5787 3.85696 13.6918 3.58862 13.9835 3.15677C14.4853 2.51251 14.8001 2.23383 15.4551 1.96657Z" stroke="white"/>
<path d="M21.5556 7.38409C22.2383 7.49035 22.5446 7.61333 22.9848 7.99878C23.3245 8.40544 23.4523 8.64078 23.6045 9.07821L23.6444 9.77284L23.5695 10.8922L23.3396 11.7418C23.1147 12.2271 22.84 12.7463 22.84 12.7463C22.6011 13.067 22.1951 13.3974 21.9154 13.6358C21.5208 13.9068 21.5802 13.8949 21.1059 14.1006C20.8051 14.1718 20.216 14.2561 19.7166 14.1805C19.2172 14.105 19.2238 14.1283 18.8669 13.9506C18.5109 13.7141 18.3155 13.5206 17.9774 13.026C17.7258 12.4524 17.6847 12.0923 17.7426 11.3669C17.8149 10.8764 17.897 10.6001 18.0874 10.0926C18.3371 9.55274 18.5173 9.31885 18.857 8.93323C19.1749 8.57858 19.3675 8.36021 19.7815 8.04372C20.4624 7.59279 20.8496 7.42887 21.5556 7.38409Z" stroke="white"/>
<path d="M15.6422 13.1353C14.7553 12.3409 14.1173 12.0257 12.5306 11.8907C10.9266 11.862 10.0424 12.1644 8.48552 13.1353C7.54563 13.8786 7.05367 14.4328 6.30739 15.9358C5.65828 17.1646 5.18444 17.8525 5.06274 19.0474C5.44244 21.0313 5.99623 21.2255 8.17436 21.5367C10.3525 21.8478 11.0501 20.5723 12.5306 19.9809C14.0814 20.8243 15.3311 21.5367 17.5092 21.2255C19.1941 20.6559 19.6654 20.0392 19.6873 18.4251C19.6845 17.3434 19.3385 16.8154 18.4427 15.9358C17.3781 14.6942 16.7721 14.069 15.6422 13.1353Z" stroke="white"/>
</svg>
