<svg width="96" height="70" viewBox="0 0 96 70" fill="none" xmlns="http://www.w3.org/2000/svg">
<path d="M42.8063 68.2574L8.925 41.2869C8.1375 40.6634 7.3875 39.9919 6.69375 39.3045H23.0062C27.2437 39.3045 31.0687 37.1302 32.7 33.7889L34.6687 29.7601L43.9125 47.2661C44.625 48.6251 46.1813 49.5044 47.925 49.5203C49.6688 49.5363 51.2625 48.721 52.05 47.394L60 33.8209L60.3188 34.3644C62.1 37.402 65.7375 39.3205 69.7125 39.3205H89.3062C88.6125 40.0079 87.8625 40.6794 87.075 41.3029L53.1938 68.2574C51.7875 69.3765 49.9313 70 48 70C46.0687 70 44.2125 69.3765 42.8063 68.2574ZM94.4438 31.6306H69.6938C69.1313 31.6306 68.6062 31.3588 68.3438 30.9272L63.9937 23.5251C63.225 22.2301 61.6687 21.3988 59.9625 21.3988C58.2562 21.3988 56.7 22.2141 55.9312 23.5251L48.1687 36.7625L38.6062 18.5531C37.875 17.1622 36.225 16.2669 34.4437 16.2989C32.6625 16.3308 31.05 17.2421 30.3562 18.665L24.3938 30.8632C24.1688 31.3428 23.6062 31.6466 23.0062 31.6466H3C2.5125 31.6466 2.0625 31.7106 1.63125 31.8225C0.5625 29.2645 0 26.5467 0 23.7809V22.8536C0 11.6785 9.46875 2.15014 22.3875 0.311608C30.9375 -0.903422 39.6375 1.47868 45.75 6.69052L48 8.60899L50.25 6.69052C56.3625 1.47868 65.0625 -0.903422 73.6125 0.311608C86.5313 2.15014 96 11.6785 96 22.8536V23.7809C96 26.4827 95.475 29.1366 94.4438 31.6306Z" fill="#373737"/>
</svg>
