<svg width="90" height="77" viewBox="0 0 90 77" fill="none" xmlns="http://www.w3.org/2000/svg">
<path d="M39.8129 10.4246C42.3271 17.7736 39.7601 25.1911 34.0811 27.0069C28.4021 28.8228 21.7561 24.3346 19.2419 16.9856C16.7277 9.63658 19.2947 2.21906 24.9736 0.403225C30.6526 -1.41261 37.2986 3.07559 39.8129 10.4246ZM17.642 28.5315C20.965 34.0818 20.1562 40.5401 15.8486 42.9383C11.541 45.3366 5.35212 42.7841 2.04671 37.2339C-1.25871 31.6836 -0.485103 25.2254 3.82249 22.8271C8.13008 20.4288 14.319 22.9813 17.6244 28.5315H17.642ZM12.1564 63.238C21.3693 39.0326 37.7382 32.8827 44.9996 32.8827C52.2609 32.8827 68.6298 39.0326 77.8428 63.238C78.4757 64.8997 78.757 66.6812 78.757 68.4628V68.7369C78.757 73.1566 75.0824 76.7368 70.5462 76.7368C68.5243 76.7368 66.5199 76.497 64.5683 76.0174L49.0962 72.2486C46.4061 71.5977 43.593 71.5977 40.9029 72.2486L25.4308 76.0174C23.4792 76.497 21.4748 76.7368 19.4529 76.7368C14.9167 76.7368 11.2421 73.1566 11.2421 68.7369V68.4628C11.2421 66.6812 11.5234 64.8997 12.1564 63.238ZM74.1505 42.9383C69.8429 40.5401 69.0342 34.0818 72.3572 28.5315C75.6802 22.9813 81.8514 20.4288 86.159 22.8271C90.4666 25.2254 91.2754 31.6836 87.9524 37.2339C84.6294 42.7841 78.4581 45.3366 74.1505 42.9383ZM54.5114 27.0069C48.8324 25.1911 46.2655 17.7736 48.7797 10.4246C51.2939 3.07559 57.9399 -1.41261 63.6189 0.403225C69.2979 2.21906 71.8649 9.63658 69.3506 16.9856C66.8364 24.3346 60.1904 28.8228 54.5114 27.0069Z" fill="#373737" fill-opacity="0.9"/>
</svg>
