<svg width="1920" height="638" viewBox="0 0 1920 638" fill="none" xmlns="http://www.w3.org/2000/svg">
<path d="M73.5491 24.0821C40.5983 35.1642 26 40.5 -0.000976562 67.5L-0.000511169 521C-0.000511169 521 0.00131607 550.5 0.000190735 590.5C-0.000934601 630.5 101.093 499.718 286 505.219C470.907 510.721 641.5 520.223 641.5 520.223C641.5 520.223 943.844 570.338 1037.12 590.743C1153.71 616.251 1317 638 1317 638H1601L1776.75 620.752C1776.75 620.752 1920 590.743 1920 553.5V96.5C1920 96.5 1923.65 43.5876 1805 11.5785C1686.35 -20.4307 1355.06 24.0821 1355.06 24.0821L1015.03 71.0955C1015.03 71.0955 676.551 93.1016 602.075 82.0985C527.598 71.0955 466.476 41.587 360.668 24.0821C254.861 6.5772 106.5 13 73.5491 24.0821Z" fill="#F0F2FF"/>
</svg>
