<svg width="94" height="81" viewBox="0 0 94 81" fill="none" xmlns="http://www.w3.org/2000/svg">
<path d="M66.5833 18.9844C66.5833 27.6223 54.6538 43.0154 49.4153 49.3594C48.1587 50.8781 45.825 50.8781 44.5847 49.3594C39.3462 43.0154 27.4167 27.6223 27.4167 18.9844C27.4167 8.49551 36.1802 0 47 0C57.8198 0 66.5833 8.49551 66.5833 18.9844ZM67.8889 31.7039C68.4601 30.6123 68.9823 29.5207 69.4556 28.4449C69.5372 28.2551 69.6188 28.0494 69.7003 27.8596L88.6309 20.5189C91.2094 19.5223 94 21.3574 94 24.0469V66.8883C94 68.4387 93.0208 69.8309 91.5358 70.4162L67.8889 79.5762V31.7039ZM22.4556 21.8795C22.8472 24.1102 23.6306 26.3566 24.5444 28.4449C25.0177 29.5207 25.5399 30.6123 26.1111 31.7039V71.4762L5.3691 79.5287C2.79063 80.5254 0 78.6902 0 76.0008V33.1594C0 31.609 0.979167 30.2168 2.46424 29.6314L22.4719 21.8795H22.4556ZM53.4951 52.5234C55.7635 49.7707 59.3212 45.2936 62.6667 40.3418V79.7818L31.3333 71.0965V40.3418C34.6788 45.2936 38.2365 49.7707 40.5049 52.5234C43.8503 56.5734 50.1497 56.5734 53.4951 52.5234ZM47 24.0469C48.7313 24.0469 50.3916 23.3802 51.6158 22.1934C52.84 21.0067 53.5278 19.3971 53.5278 17.7188C53.5278 16.0404 52.84 14.4308 51.6158 13.2441C50.3916 12.0573 48.7313 11.3906 47 11.3906C45.2687 11.3906 43.6084 12.0573 42.3842 13.2441C41.16 14.4308 40.4722 16.0404 40.4722 17.7188C40.4722 19.3971 41.16 21.0067 42.3842 22.1934C43.6084 23.3802 45.2687 24.0469 47 24.0469Z" fill="#373737" fill-opacity="0.9"/>
</svg>
