<svg width="36" height="34" viewBox="0 0 36 34" fill="none" xmlns="http://www.w3.org/2000/svg">
<g clip-path="url(#clip0_288_902)">
<path d="M0.0263672 6.28314C0.0263672 5.12466 1.14355 4.18872 2.52637 4.18872H32.5264C33.9092 4.18872 35.0264 5.12466 35.0264 6.28314C35.0264 7.44161 33.9092 8.37755 32.5264 8.37755H2.52637C1.14355 8.37755 0.0263672 7.44161 0.0263672 6.28314ZM0.0263672 16.7552C0.0263672 15.5967 1.14355 14.6608 2.52637 14.6608H32.5264C33.9092 14.6608 35.0264 15.5967 35.0264 16.7552C35.0264 17.9137 33.9092 18.8496 32.5264 18.8496H2.52637C1.14355 18.8496 0.0263672 17.9137 0.0263672 16.7552ZM35.0264 27.2273C35.0264 28.3858 33.9092 29.3217 32.5264 29.3217H2.52637C1.14355 29.3217 0.0263672 28.3858 0.0263672 27.2273C0.0263672 26.0688 1.14355 25.1329 2.52637 25.1329H32.5264C33.9092 25.1329 35.0264 26.0688 35.0264 27.2273Z" fill="#373737"/>
</g>
<defs>
<clipPath id="clip0_288_902">
<rect width="35" height="33.5106" fill="white" transform="translate(0.0263672)"/>
</clipPath>
</defs>
</svg>
