<svg width="100" height="69" viewBox="0 0 100 69" fill="none" xmlns="http://www.w3.org/2000/svg">
<path d="M0 24.3819C0 19.0026 5.60547 14.6291 12.5 14.6291C12.5977 14.6291 12.7148 14.6291 12.8125 14.6291C14.2578 9.06701 20.5664 4.87637 28.125 4.87637C31.0547 4.87637 33.7891 5.50116 36.1133 6.5831C38.7109 2.68201 43.9648 0 50 0C56.0352 0 61.2891 2.68201 63.8867 6.5831C66.2109 5.50116 68.9453 4.87637 71.875 4.87637C79.4336 4.87637 85.7422 9.06701 87.1875 14.6291C87.2852 14.6291 87.4023 14.6291 87.5 14.6291C94.3945 14.6291 100 19.0026 100 24.3819C100 26.1648 99.3945 27.8258 98.3203 29.2582H1.67969C0.605469 27.8258 0 26.1648 0 24.3819ZM0 38.31C0 36.009 2.40234 34.1346 5.35156 34.1346H94.6484C97.5977 34.1346 100 36.009 100 38.31C100 49.0533 91.3281 58.227 79.1602 61.7928L78.8086 64.0024C78.418 66.4406 75.7617 68.2692 72.5977 68.2692H27.3828C24.2383 68.2692 21.5625 66.4406 21.1719 64.0024L20.8203 61.808C8.67188 58.227 0 49.0533 0 38.31Z" fill="#373737"/>
</svg>
