<svg width="100" height="76" viewBox="0 0 100 76" fill="none" xmlns="http://www.w3.org/2000/svg">
<path d="M37.3507 21.8076H39.5688C42.4355 26.1577 47.8055 29.0768 53.9539 29.0768C55.3807 29.0768 56.7816 28.9178 58.1047 28.6224V29.0768V32.7114V54.519C58.1047 56.5293 56.2498 58.1535 53.9539 58.1535C51.658 58.1535 49.8031 56.5293 49.8031 54.519V38.5267L32.1623 50.8844H39.4261C41.722 50.8844 43.5769 52.5086 43.5769 54.519C43.5769 56.5293 41.722 58.1535 39.4261 58.1535H20.7476C13.8729 58.1535 8.29524 53.2696 8.29524 47.2498V21.8644C8.29524 20.0357 6.73869 18.4797 4.6633 18.2525L3.63857 18.1389C1.36861 17.889 -0.252788 16.0717 0.0325787 14.0841C0.317945 12.0964 2.39334 10.6766 4.6633 10.9265L5.68803 11.0401C11.9142 11.7216 16.5968 16.3557 16.5968 21.8644V31.5528C21.0589 25.6807 28.686 21.8076 37.3507 21.8076ZM58.1047 24.8175C56.8076 25.215 55.4067 25.4422 53.9539 25.4422C50.2701 25.4422 46.9494 24.0338 44.6665 21.8076C44.1866 21.3419 43.7585 20.8421 43.3824 20.3083C42.189 18.6273 41.5015 16.651 41.5015 14.5384V3.6346V1.36297V1.21532C41.5015 0.545189 42.1112 0.0113581 42.8765 0H42.9024C43.3305 0 43.7326 0.18173 43.992 0.477041V0.488399L45.6523 2.41928L49.1805 6.54227L49.8031 7.26919H58.1047L58.7273 6.54227L62.2555 2.41928L63.9158 0.488399V0.477041C64.1752 0.18173 64.5773 0 65.0054 0H65.0313C65.7966 0.0113581 66.4062 0.545189 66.4062 1.21532V1.36297V3.6346V14.5384C66.4062 16.5033 65.8096 18.3547 64.7719 19.9449C63.3061 22.1938 60.9324 23.9429 58.1047 24.8175ZM51.8785 14.5384C51.8785 14.0564 51.6598 13.5942 51.2706 13.2534C50.8814 12.9126 50.3535 12.7211 49.8031 12.7211C49.2527 12.7211 48.7248 12.9126 48.3356 13.2534C47.9464 13.5942 47.7277 14.0564 47.7277 14.5384C47.7277 15.0204 47.9464 15.4826 48.3356 15.8234C48.7248 16.1642 49.2527 16.3557 49.8031 16.3557C50.3535 16.3557 50.8814 16.1642 51.2706 15.8234C51.6598 15.4826 51.8785 15.0204 51.8785 14.5384ZM58.1047 16.3557C58.6551 16.3557 59.183 16.1642 59.5722 15.8234C59.9614 15.4826 60.1801 15.0204 60.1801 14.5384C60.1801 14.0564 59.9614 13.5942 59.5722 13.2534C59.183 12.9126 58.6551 12.7211 58.1047 12.7211C57.5542 12.7211 57.0264 12.9126 56.6371 13.2534C56.2479 13.5942 56.0293 14.0564 56.0293 14.5384C56.0293 15.0204 56.2479 15.4826 56.6371 15.8234C57.0264 16.1642 57.5542 16.3557 58.1047 16.3557Z" fill="#373737" fill-opacity="0.85"/>
<path d="M65.672 35.4487L68.6487 19.695C68.8935 18.4001 70.1692 17.446 71.664 17.446C72.6304 17.446 73.5324 17.8436 74.1123 18.5251L76.29 21.0806H83.0035C84.64 21.0806 86.2121 21.6599 87.3718 22.6821L89.6913 24.7152H96.9074C98.6212 24.7152 100 25.9306 100 27.4412V30.1671C100 35.1874 95.3869 39.2536 89.6913 39.2536H85.5678H83.5061H80.7614L80.1042 42.7179L65.672 35.4487ZM79.3826 46.5342V71.965C79.3826 73.9754 77.5399 75.5996 75.2591 75.5996H71.1356C68.8548 75.5996 67.0122 73.9754 67.0122 71.965V58.8804C63.9195 60.2775 60.4146 61.0612 56.7035 61.0612C52.9923 61.0612 49.4874 60.2775 46.3947 58.8804V71.965C46.3947 73.9754 44.5521 75.5996 42.2713 75.5996H38.1478C35.867 75.5996 34.0243 73.9754 34.0243 71.965V45.8186C30.3132 44.5806 27.401 41.8092 26.3959 38.2655L25.9062 36.505C25.3521 34.5627 26.6922 32.5864 28.9086 32.098C31.125 31.6096 33.3542 32.7909 33.9083 34.7445L34.4109 36.505C34.8619 38.1178 36.5113 39.2536 38.4055 39.2536H42.2713H44.333H64.9246L79.3826 46.5342ZM85.5678 26.5325C85.5678 26.0506 85.3506 25.5883 84.964 25.2475C84.5773 24.9067 84.0529 24.7152 83.5061 24.7152C82.9593 24.7152 82.4349 24.9067 82.0482 25.2475C81.6616 25.5883 81.4443 26.0506 81.4443 26.5325C81.4443 27.0145 81.6616 27.4768 82.0482 27.8176C82.4349 28.1584 82.9593 28.3498 83.5061 28.3498C84.0529 28.3498 84.5773 28.1584 84.964 27.8176C85.3506 27.4768 85.5678 27.0145 85.5678 26.5325Z" fill="#373737"/>
</svg>
