<svg width="36" height="35" viewBox="0 0 36 35" fill="none" xmlns="http://www.w3.org/2000/svg">
<g clip-path="url(#clip0_288_905)">
<path d="M14.9219 7.23926L23.3164 15.6338C23.8086 16.126 24.0889 16.8027 24.0889 17.5C24.0889 18.1973 23.8086 18.874 23.3164 19.3662L14.9219 27.7607C14.4844 28.1982 13.8965 28.4375 13.2812 28.4375C12.0029 28.4375 10.9639 27.3984 10.9639 26.1201V21.875H2.21387C1.00391 21.875 0.0263672 20.8975 0.0263672 19.6875V15.3125C0.0263672 14.1025 1.00391 13.125 2.21387 13.125H10.9639V8.87988C10.9639 7.60156 12.0029 6.5625 13.2812 6.5625C13.8965 6.5625 14.4844 6.80859 14.9219 7.23926ZM24.0889 28.4375H28.4639C29.6738 28.4375 30.6514 27.46 30.6514 26.25V8.75C30.6514 7.54004 29.6738 6.5625 28.4639 6.5625H24.0889C22.8789 6.5625 21.9014 5.58496 21.9014 4.375C21.9014 3.16504 22.8789 2.1875 24.0889 2.1875H28.4639C32.0869 2.1875 35.0264 5.12695 35.0264 8.75V26.25C35.0264 29.873 32.0869 32.8125 28.4639 32.8125H24.0889C22.8789 32.8125 21.9014 31.835 21.9014 30.625C21.9014 29.415 22.8789 28.4375 24.0889 28.4375Z" fill="#373737"/>
</g>
<defs>
<clipPath id="clip0_288_905">
<rect width="35" height="35" fill="white" transform="translate(0.0263672)"/>
</clipPath>
</defs>
</svg>
