<svg width="28" height="25" viewBox="0 0 28 25" fill="none" xmlns="http://www.w3.org/2000/svg">
<path d="M0 1.17188C0 0.522461 0.522461 0 1.17188 0H3.39355C4.46777 0 5.41992 0.625 5.86426 1.5625H25.9326C27.2168 1.5625 28.1543 2.7832 27.8174 4.02344L25.8154 11.46C25.4004 12.9932 24.0088 14.0625 22.4219 14.0625H8.33496L8.59863 15.4541C8.70605 16.0059 9.18945 16.4062 9.75098 16.4062H23.8281C24.4775 16.4062 25 16.9287 25 17.5781C25 18.2275 24.4775 18.75 23.8281 18.75H9.75098C8.06152 18.75 6.61133 17.5488 6.29883 15.8936L3.7793 2.66113C3.74512 2.47559 3.58398 2.34375 3.39355 2.34375H1.17188C0.522461 2.34375 0 1.82129 0 1.17188ZM6.25 22.6562C6.25 22.3485 6.31062 22.0437 6.42841 21.7593C6.54619 21.475 6.71883 21.2166 6.93647 20.999C7.15411 20.7813 7.41248 20.6087 7.69684 20.4909C7.98119 20.3731 8.28596 20.3125 8.59375 20.3125C8.90154 20.3125 9.20631 20.3731 9.49066 20.4909C9.77502 20.6087 10.0334 20.7813 10.251 20.999C10.4687 21.2166 10.6413 21.475 10.7591 21.7593C10.8769 22.0437 10.9375 22.3485 10.9375 22.6562C10.9375 22.964 10.8769 23.2688 10.7591 23.5532C10.6413 23.8375 10.4687 24.0959 10.251 24.3135C10.0334 24.5312 9.77502 24.7038 9.49066 24.8216C9.20631 24.9394 8.90154 25 8.59375 25C8.28596 25 7.98119 24.9394 7.69684 24.8216C7.41248 24.7038 7.15411 24.5312 6.93647 24.3135C6.71883 24.0959 6.54619 23.8375 6.42841 23.5532C6.31062 23.2688 6.25 22.964 6.25 22.6562ZM22.6562 20.3125C23.2779 20.3125 23.874 20.5594 24.3135 20.999C24.7531 21.4385 25 22.0346 25 22.6562C25 23.2779 24.7531 23.874 24.3135 24.3135C23.874 24.7531 23.2779 25 22.6562 25C22.0346 25 21.4385 24.7531 20.999 24.3135C20.5594 23.874 20.3125 23.2779 20.3125 22.6562C20.3125 22.0346 20.5594 21.4385 20.999 20.999C21.4385 20.5594 22.0346 20.3125 22.6562 20.3125Z" fill="#5B5B5E"/>
</svg>
