<svg width="32" height="34" viewBox="0 0 32 34" fill="none" xmlns="http://www.w3.org/2000/svg">
<path d="M4.57143 0C2.05 0 0 2.17813 0 4.85714V29.1429C0 31.8219 2.05 34 4.57143 34H11.5857V22.9348H7.81429V17H11.5857V14.4424C11.5857 7.83214 14.4 4.76607 20.5143 4.76607C21.6714 4.76607 23.6714 5.00893 24.4929 5.25179V10.625C24.0643 10.5795 23.3143 10.5491 22.3786 10.5491C19.3786 10.5491 18.2214 11.7558 18.2214 14.8902V17H24.1929L23.1643 22.9348H18.2143V34H27.4286C29.95 34 32 31.8219 32 29.1429V4.85714C32 2.17813 29.95 0 27.4286 0H4.57143Z" fill="#373737"/>
</svg>
