<svg width="32" height="34" viewBox="0 0 32 34" fill="none" xmlns="http://www.w3.org/2000/svg">
<path d="M16.0036 8.28283C11.4632 8.28283 7.801 12.1748 7.801 17C7.801 21.8252 11.4632 25.7172 16.0036 25.7172C20.5439 25.7172 24.2061 21.8252 24.2061 17C24.2061 12.1748 20.5439 8.28283 16.0036 8.28283ZM16.0036 22.6673C13.0695 22.6673 10.6708 20.1257 10.6708 17C10.6708 13.8743 13.0624 11.3327 16.0036 11.3327C18.9448 11.3327 21.3363 13.8743 21.3363 17C21.3363 20.1257 18.9376 22.6673 16.0036 22.6673ZM26.4549 7.92625C26.4549 9.05668 25.5982 9.9595 24.5417 9.9595C23.478 9.9595 22.6284 9.04909 22.6284 7.92625C22.6284 6.80341 23.4851 5.893 24.5417 5.893C25.5982 5.893 26.4549 6.80341 26.4549 7.92625ZM31.8876 9.98985C31.7662 7.26621 31.1808 4.85362 29.3033 2.86589C27.4329 0.878166 25.1627 0.256053 22.5999 0.119491C19.9585 -0.0398304 12.0415 -0.0398304 9.40011 0.119491C6.8444 0.248466 4.57423 0.870579 2.69671 2.85831C0.819186 4.84603 0.240937 7.25862 0.112437 9.98226C-0.0374791 12.7894 -0.0374791 21.2031 0.112437 24.0102C0.233798 26.7338 0.819186 29.1464 2.69671 31.1341C4.57423 33.1218 6.83726 33.7439 9.40011 33.8805C12.0415 34.0398 19.9585 34.0398 22.5999 33.8805C25.1627 33.7515 27.4329 33.1294 29.3033 31.1341C31.1737 29.1464 31.7591 26.7338 31.8876 24.0102C32.0375 21.2031 32.0375 12.7969 31.8876 9.98985ZM28.4752 27.0221C27.9184 28.5091 26.8404 29.6547 25.434 30.254C23.3281 31.1417 18.3308 30.9369 16.0036 30.9369C13.6763 30.9369 8.67195 31.1341 6.57312 30.254C5.1739 29.6623 4.09593 28.5167 3.53196 27.0221C2.69671 24.784 2.88946 19.4733 2.88946 17C2.88946 14.5267 2.70385 9.20841 3.53196 6.97791C4.08879 5.49091 5.16676 4.34531 6.57312 3.74596C8.67909 2.85831 13.6763 3.06315 16.0036 3.06315C18.3308 3.06315 23.3352 2.86589 25.434 3.74596C26.8332 4.33772 27.9112 5.48332 28.4752 6.97791C29.3104 9.216 29.1177 14.5267 29.1177 17C29.1177 19.4733 29.3104 24.7916 28.4752 27.0221Z" fill="#373737"/>
</svg>
