<svg width="32" height="34" viewBox="0 0 32 34" fill="none" xmlns="http://www.w3.org/2000/svg">
<path d="M29.7143 0H2.27857C1.02143 0 0 1.10045 0 2.45134V31.5487C0 32.8996 1.02143 34 2.27857 34H29.7143C30.9714 34 32 32.8996 32 31.5487V2.45134C32 1.10045 30.9714 0 29.7143 0ZM9.67143 29.1429H4.92857V12.917H9.67857V29.1429H9.67143ZM7.3 10.7009C5.77857 10.7009 4.55 9.38795 4.55 7.77902C4.55 6.17009 5.77857 4.85714 7.3 4.85714C8.81429 4.85714 10.05 6.17009 10.05 7.77902C10.05 9.39554 8.82143 10.7009 7.3 10.7009ZM27.45 29.1429H22.7071V21.25C22.7071 19.3679 22.6714 16.9469 20.2429 16.9469C17.7714 16.9469 17.3929 18.996 17.3929 21.1134V29.1429H12.65V12.917H17.2V15.133H17.2643C17.9 13.858 19.45 12.5147 21.7571 12.5147C26.5571 12.5147 27.45 15.8768 27.45 20.2482V29.1429Z" fill="#373737"/>
</svg>
