<svg width="31" height="35" viewBox="0 0 31 35" fill="none" xmlns="http://www.w3.org/2000/svg">
<g clip-path="url(#clip0_288_907)">
<path d="M15.0264 17.1429C17.2997 17.1429 19.4798 16.2398 21.0873 14.6323C22.6947 13.0249 23.5978 10.8447 23.5978 8.57143C23.5978 6.29814 22.6947 4.11797 21.0873 2.51051C19.4798 0.903059 17.2997 0 15.0264 0C12.7531 0 10.5729 0.903059 8.96545 2.51051C7.358 4.11797 6.45494 6.29814 6.45494 8.57143C6.45494 10.8447 7.358 13.0249 8.96545 14.6323C10.5729 16.2398 12.7531 17.1429 15.0264 17.1429ZM11.9661 20.3571C5.37012 20.3571 0.0263672 25.7009 0.0263672 32.2969C0.0263672 33.3951 0.916992 34.2857 2.01521 34.2857H28.0375C29.1357 34.2857 30.0264 33.3951 30.0264 32.2969C30.0264 25.7009 24.6826 20.3571 18.0866 20.3571H11.9661Z" fill="#373737"/>
<path d="M15.0264 17.1429C17.2997 17.1429 19.4798 16.2398 21.0873 14.6323C22.6947 13.0249 23.5978 10.8447 23.5978 8.57143C23.5978 6.29814 22.6947 4.11797 21.0873 2.51051C19.4798 0.903059 17.2997 0 15.0264 0C12.7531 0 10.5729 0.903059 8.96545 2.51051C7.358 4.11797 6.45494 6.29814 6.45494 8.57143C6.45494 10.8447 7.358 13.0249 8.96545 14.6323C10.5729 16.2398 12.7531 17.1429 15.0264 17.1429ZM11.9661 20.3571C5.37012 20.3571 0.0263672 25.7009 0.0263672 32.2969C0.0263672 33.3951 0.916992 34.2857 2.01521 34.2857H28.0375C29.1357 34.2857 30.0264 33.3951 30.0264 32.2969C30.0264 25.7009 24.6826 20.3571 18.0866 20.3571H11.9661Z" fill="#42B3C8"/>
</g>
<defs>
<clipPath id="clip0_288_907">
<rect width="30" height="34.2857" fill="white" transform="translate(0.0263672)"/>
</clipPath>
</defs>
</svg>
