<svg width="28" height="27" viewBox="0 0 28 27" fill="none" xmlns="http://www.w3.org/2000/svg">
<path d="M26.4094 23.3957L20.0971 17.0841C21.5325 14.9533 22.2407 12.2911 21.8616 9.45425C21.2151 4.62904 17.26 0.702329 12.4295 0.0908335C5.24756 -0.817841 -0.791607 5.22065 0.117221 12.4018C0.728942 17.2338 4.65661 21.1917 9.48288 21.835C12.32 22.214 14.9831 21.5061 17.1136 20.0707L23.4259 26.3823C24.2496 27.2059 25.5854 27.2059 26.4091 26.3823C27.2321 25.5576 27.2321 24.2183 26.4094 23.3957ZM4.19761 10.9676C4.19761 7.24597 7.22563 4.21828 10.9476 4.21828C14.6696 4.21828 17.6977 7.24597 17.6977 10.9676C17.6977 14.6892 14.6696 17.7168 10.9476 17.7168C7.22563 17.7168 4.19761 14.6902 4.19761 10.9676Z" fill="black" fill-opacity="0.45"/>
</svg>
