<svg width="100" height="50" viewBox="0 0 100 50" fill="none" xmlns="http://www.w3.org/2000/svg">
<path d="M26.684 8.15051C27.8819 10.6554 30.2604 12.9452 33.3333 12.9452H66.6667C69.7396 12.9452 72.118 10.6554 73.316 8.15051C75.4167 3.74001 80.3646 0.651123 86.1111 0.651123C93.7847 0.651123 100 6.15272 100 12.9452C100 17.617 97.0486 21.6894 92.7083 23.764C92.0833 24.056 91.6667 24.6092 91.6667 25.2393C91.6667 25.8694 92.0833 26.4226 92.7083 26.7146C97.0486 28.7892 100 32.8616 100 37.5334C100 44.3258 93.7847 49.8274 86.1111 49.8274C80.3646 49.8274 75.4167 46.7386 73.316 42.3281C72.118 39.8231 69.7396 37.5334 66.6667 37.5334H33.3333C30.2604 37.5334 27.8819 39.8231 26.684 42.3281C24.5833 46.7386 19.6354 49.8274 13.8889 49.8274C6.21528 49.8274 0 44.3258 0 37.5334C0 32.8616 2.95139 28.7892 7.29167 26.7146C7.91667 26.4226 8.33333 25.8694 8.33333 25.2393C8.33333 24.6092 7.91667 24.056 7.29167 23.764C2.95139 21.6894 0 17.617 0 12.9452C0 6.15272 6.21528 0.651123 13.8889 0.651123C19.6354 0.651123 24.5833 3.74001 26.684 8.15051Z" fill="#373737"/>
</svg>
