<svg width="32" height="34" viewBox="0 0 32 34" fill="none" xmlns="http://www.w3.org/2000/svg">
<path d="M27.2071 4.94062C24.2143 1.75312 20.2286 0 15.9929 0C7.25 0 0.135714 7.55893 0.135714 16.8482C0.135714 19.8156 0.864286 22.7147 2.25 25.2723L0 34L8.40714 31.6549C10.7214 32.9982 13.3286 33.704 15.9857 33.704H15.9929C24.7286 33.704 32 26.1451 32 16.8558C32 12.3554 30.2 8.12812 27.2071 4.94062ZM15.9929 30.8656C13.6214 30.8656 11.3 30.1902 9.27857 28.9152L8.8 28.6116L3.81429 30.0004L5.14286 24.8321L4.82857 24.3009C3.50714 22.0696 2.81429 19.4969 2.81429 16.8482C2.81429 9.12991 8.72857 2.84598 16 2.84598C19.5214 2.84598 22.8286 4.30312 25.3143 6.95179C27.8 9.60045 29.3286 13.1143 29.3214 16.8558C29.3214 24.5817 23.2571 30.8656 15.9929 30.8656ZM23.2214 20.3772C22.8286 20.1647 20.8786 19.1478 20.5143 19.0112C20.15 18.867 19.8857 18.7987 19.6214 19.2237C19.3571 19.6487 18.6 20.5897 18.3643 20.8781C18.1357 21.1589 17.9 21.1969 17.5071 20.9844C15.1786 19.7473 13.65 18.7759 12.1143 15.9754C11.7071 15.2317 12.5214 15.2848 13.2786 13.6759C13.4071 13.3951 13.3429 13.1522 13.2429 12.9397C13.1429 12.7272 12.35 10.6554 12.0214 9.81295C11.7 8.9933 11.3714 9.10714 11.1286 9.09196C10.9 9.07679 10.6357 9.07679 10.3714 9.07679C10.1071 9.07679 9.67857 9.18304 9.31429 9.60045C8.95 10.0254 7.92857 11.0424 7.92857 13.1143C7.92857 15.1862 9.35 17.1897 9.54286 17.4705C9.74286 17.7513 12.3357 22.0013 16.3143 23.8304C18.8286 24.9839 19.8143 25.0826 21.0714 24.8853C21.8357 24.7638 23.4143 23.8683 23.7429 22.8817C24.0714 21.8951 24.0714 21.0527 23.9714 20.8781C23.8786 20.6884 23.6143 20.5821 23.2214 20.3772Z" fill="#373737"/>
</svg>
